<svg width="1156" height="292" viewBox="0 0 1156 292" fill="none" xmlns="http://www.w3.org/2000/svg">
<rect width="1156" height="292" fill="#F5F5F5"/>
<path fill-rule="evenodd" clip-rule="evenodd" d="M256.688 174.451C264.502 158.941 268.917 141.881 269.558 124.428C270.381 102.047 264.966 79.9044 253.921 60.4856C242.876 41.0669 226.639 25.1401 207.03 14.4924C187.842 4.07276 166.168 -0.88796 144.345 0.130411C143.899 0.108561 143.451 0.0974829 143 0.0974829H27C12.0883 0.0974829 0 12.1858 0 27.0975C0 42.0092 12.0883 54.0975 27 54.0975H143C144.867 54.0975 146.691 53.9079 148.451 53.5469C158.922 54.1519 169.419 57.1486 179.128 62.7541C211.587 81.494 223.2 122.443 205.762 155.168C200.015 162.35 198.072 172.288 201.522 181.543L235.592 272.952C241.042 287.574 257.62 294.658 271.953 288.49C285.364 282.72 291.858 267.418 286.692 253.763L256.688 174.451ZM4 263.621C4 278.809 16.3122 291.121 31.5 291.121C46.6878 291.121 59 278.809 59 263.621V150.121H138.5C154.24 150.121 167 137.361 167 121.621C167 105.881 154.24 93.1213 138.5 93.1213H32.5C32.4631 93.1213 32.4263 93.1214 32.3895 93.1215C32.3558 93.1217 32.3221 93.1218 32.2884 93.1221C32.2265 93.1225 32.1647 93.1232 32.1029 93.124C32.0671 93.1245 32.0313 93.1251 31.9955 93.1257C31.8307 93.1228 31.6655 93.1213 31.5 93.1213C16.3122 93.1213 4 105.433 4 120.621V121.621V263.621ZM112 182.269C106.477 182.269 102 186.746 102 192.269V280.886C102 286.409 106.477 290.886 112 290.886H119.24C120.169 291.267 121.193 291.479 122.28 291.479H181.99C187.412 291.479 191.263 286.2 189.608 281.037L159.753 187.89C158.493 183.959 154.952 182.113 151.549 182.352C151.123 182.297 150.689 182.269 150.248 182.269H112Z" fill="#396682"/>
<path d="M307.456 163.321L295.552 192.121H289.536L324.352 108.537H327.808L362.88 192.121H356.352L344.32 163.321H307.456ZM325.76 118.009C324.48 121.849 323.328 125.049 322.304 127.609L309.504 158.329H342.272L329.6 127.737C327.637 122.959 326.357 119.716 325.76 118.009ZM406.359 187.769C417.282 187.769 426.028 184.825 432.599 178.937C439.255 173.049 442.583 164.175 442.583 152.313C442.583 140.452 438.828 131.023 431.319 124.025C423.895 117.028 414.722 113.529 403.799 113.529C396.034 113.529 390.06 113.7 385.879 114.041V186.873C390.999 187.471 397.826 187.769 406.359 187.769ZM403.799 108.281C416.599 108.281 427.266 112.249 435.799 120.185C444.418 128.036 448.727 138.745 448.727 152.313C448.727 165.881 444.759 176.079 436.823 182.905C428.972 189.732 418.818 193.145 406.359 193.145C397.74 193.145 388.866 192.719 379.735 191.865V109.049C386.562 108.537 394.583 108.281 403.799 108.281ZM520.485 192.121V109.433C527.824 108.836 534.053 108.537 539.173 108.537C547.024 108.537 553.509 110.585 558.629 114.681C563.749 118.692 566.309 124.452 566.309 131.961C566.309 136.996 564.858 141.647 561.957 145.913C559.056 150.18 555.77 153.636 552.101 156.281C562.256 169.764 568.528 177.828 570.917 180.473C575.781 185.508 581.072 188.367 586.789 189.049L586.661 193.017C581.882 192.932 578 192.249 575.013 190.969C572.026 189.604 569.04 187.343 566.053 184.185C563.152 181.028 556.709 172.537 546.725 158.713C539.813 158.713 533.029 158.5 526.373 158.073V192.121H520.485ZM543.525 153.849C546.853 153.849 550.437 151.631 554.277 147.193C558.117 142.756 560.037 137.593 560.037 131.705C560.037 125.817 558.032 121.337 554.021 118.265C550.01 115.193 544.805 113.657 538.405 113.657C534.992 113.657 530.981 113.828 526.373 114.169V153.209C532.517 153.636 538.234 153.849 543.525 153.849ZM598.36 192.121V109.049H637.144V114.169H604.248V144.377H633.944V149.369H604.248V186.745H638.424V192.121H598.36ZM661.985 192.121V109.561C668.385 108.879 675.126 108.537 682.209 108.537C689.377 108.537 695.436 110.457 700.385 114.297C705.334 118.052 707.809 123.769 707.809 131.449C707.809 139.129 704.438 145.444 697.697 150.393C690.956 155.257 682.977 157.689 673.761 157.689C673.334 157.689 672.865 157.689 672.353 157.689V153.593C672.694 153.593 672.993 153.593 673.249 153.593C680.844 153.593 687.457 151.588 693.089 147.577C698.721 143.567 701.537 138.361 701.537 131.961C701.537 125.561 699.532 120.911 695.521 118.009C691.596 115.108 686.39 113.657 679.905 113.657C676.492 113.657 672.481 113.828 667.873 114.169V192.121H661.985ZM766.346 193.401C754.485 193.401 744.543 189.263 736.522 180.985C728.501 172.708 724.49 162.596 724.49 150.649C724.49 138.617 728.501 128.463 736.522 120.185C744.543 111.908 754.485 107.769 766.346 107.769C778.207 107.769 788.149 111.908 796.17 120.185C804.191 128.463 808.202 138.617 808.202 150.649C808.202 162.596 804.191 172.708 796.17 180.985C788.149 189.263 778.207 193.401 766.346 193.401ZM766.346 113.017C756.106 113.017 747.573 116.644 740.746 123.897C734.005 131.151 730.634 140.068 730.634 150.649C730.634 161.145 734.005 170.02 740.746 177.273C747.573 184.441 756.106 188.025 766.346 188.025C776.671 188.025 785.205 184.441 791.946 177.273C798.687 170.02 802.058 161.145 802.058 150.649C802.058 140.068 798.687 131.151 791.946 123.897C785.205 116.644 776.671 113.017 766.346 113.017ZM833.86 192.121V109.433C841.199 108.836 847.428 108.537 852.548 108.537C860.399 108.537 866.884 110.585 872.004 114.681C877.124 118.692 879.684 124.452 879.684 131.961C879.684 136.996 878.233 141.647 875.332 145.913C872.431 150.18 869.145 153.636 865.476 156.281C875.631 169.764 881.903 177.828 884.292 180.473C889.156 185.508 894.447 188.367 900.164 189.049L900.036 193.017C895.257 192.932 891.375 192.249 888.388 190.969C885.401 189.604 882.415 187.343 879.428 184.185C876.527 181.028 870.084 172.537 860.1 158.713C853.188 158.713 846.404 158.5 839.748 158.073V192.121H833.86ZM856.9 153.849C860.228 153.849 863.812 151.631 867.652 147.193C871.492 142.756 873.412 137.593 873.412 131.705C873.412 125.817 871.407 121.337 867.396 118.265C863.385 115.193 858.18 113.657 851.78 113.657C848.367 113.657 844.356 113.828 839.748 114.169V153.209C845.892 153.636 851.609 153.849 856.9 153.849ZM920.583 114.297H892.423V109.049H954.503V114.297H926.343V192.121H920.583V114.297Z" fill="#396682"/>
</svg>
