<svg width="978" height="356" viewBox="0 0 978 356" fill="none" xmlns="http://www.w3.org/2000/svg">
<path fill-rule="evenodd" clip-rule="evenodd" d="M256.668 174.123C264.481 158.64 268.898 141.612 269.545 124.192C270.376 101.846 264.969 79.7397 253.933 60.3549C242.896 40.9702 226.665 25.0738 207.062 14.4496C187.849 4.03659 166.142 -0.907943 144.285 0.1371C143.874 0.118467 143.46 0.109049 143.044 0.109049H26.9556C12.0684 0.109049 0 12.1775 0 27.0647C0 41.9518 12.0684 54.0203 26.9556 54.0203H143.044C144.919 54.0203 146.749 53.829 148.515 53.4648C158.971 54.0703 169.452 57.0581 179.146 62.6445C211.643 81.3715 223.227 122.347 205.667 155.051C199.997 162.218 198.099 172.089 201.534 181.289L235.581 272.484C241.037 287.099 257.618 294.186 271.951 288.028C285.362 282.267 291.853 266.975 286.68 253.325L256.668 174.123ZM4 263.154C4 278.342 16.3122 290.654 31.5 290.654C46.6878 290.654 59 278.342 59 263.154V149.886H138.547C154.261 149.886 167 137.147 167 121.433C167 105.719 154.261 92.9798 138.547 92.9798H32.4531C32.2926 92.9798 32.1324 92.9811 31.9725 92.9838C31.8153 92.9811 31.6578 92.9798 31.5 92.9798C16.3122 92.9798 4 105.292 4 120.48V121.433V263.154ZM112 181.981C106.477 181.981 102 186.458 102 191.981V280.42C102 285.942 106.477 290.42 112 290.42H119.248C120.176 290.8 121.199 291.012 122.285 291.012H181.985C187.408 291.012 191.259 285.73 189.602 280.566L159.752 187.589C158.485 183.643 154.918 181.799 151.503 182.058C151.092 182.007 150.673 181.981 150.248 181.981H112Z" fill="#396682"/>
<path d="M321.456 228.2L309.552 257H303.536L338.352 173.416H341.808L376.88 257H370.352L358.32 228.2H321.456ZM339.76 182.888C338.48 186.728 337.328 189.928 336.304 192.488L323.504 223.208H356.272L343.6 192.616C341.637 187.837 340.357 184.595 339.76 182.888ZM420.359 252.648C431.282 252.648 440.028 249.704 446.599 243.816C453.255 237.928 456.583 229.053 456.583 217.192C456.583 205.331 452.828 195.901 445.319 188.904C437.895 181.907 428.722 178.408 417.799 178.408C410.034 178.408 404.06 178.579 399.879 178.92V251.752C404.999 252.349 411.826 252.648 420.359 252.648ZM417.799 173.16C430.599 173.16 441.266 177.128 449.799 185.064C458.418 192.915 462.727 203.624 462.727 217.192C462.727 230.76 458.759 240.957 450.823 247.784C442.972 254.611 432.818 258.024 420.359 258.024C411.74 258.024 402.866 257.597 393.735 256.744V173.928C400.562 173.416 408.583 173.16 417.799 173.16ZM534.485 257V174.312C541.824 173.715 548.053 173.416 553.173 173.416C561.024 173.416 567.509 175.464 572.629 179.56C577.749 183.571 580.309 189.331 580.309 196.84C580.309 201.875 578.858 206.525 575.957 210.792C573.056 215.059 569.77 218.515 566.101 221.16C576.256 234.643 582.528 242.707 584.917 245.352C589.781 250.387 595.072 253.245 600.789 253.928L600.661 257.896C595.882 257.811 592 257.128 589.013 255.848C586.026 254.483 583.04 252.221 580.053 249.064C577.152 245.907 570.709 237.416 560.725 223.592C553.813 223.592 547.029 223.379 540.373 222.952V257H534.485ZM557.525 218.728C560.853 218.728 564.437 216.509 568.277 212.072C572.117 207.635 574.037 202.472 574.037 196.584C574.037 190.696 572.032 186.216 568.021 183.144C564.01 180.072 558.805 178.536 552.405 178.536C548.992 178.536 544.981 178.707 540.373 179.048V218.088C546.517 218.515 552.234 218.728 557.525 218.728ZM612.36 257V173.928H651.144V179.048H618.248V209.256H647.944V214.248H618.248V251.624H652.424V257H612.36ZM675.985 257V174.44C682.385 173.757 689.126 173.416 696.209 173.416C703.377 173.416 709.436 175.336 714.385 179.176C719.334 182.931 721.809 188.648 721.809 196.328C721.809 204.008 718.438 210.323 711.697 215.272C704.956 220.136 696.977 222.568 687.761 222.568C687.334 222.568 686.865 222.568 686.353 222.568V218.472C686.694 218.472 686.993 218.472 687.249 218.472C694.844 218.472 701.457 216.467 707.089 212.456C712.721 208.445 715.537 203.24 715.537 196.84C715.537 190.44 713.532 185.789 709.521 182.888C705.596 179.987 700.39 178.536 693.905 178.536C690.492 178.536 686.481 178.707 681.873 179.048V257H675.985ZM780.346 258.28C768.485 258.28 758.543 254.141 750.522 245.864C742.501 237.587 738.49 227.475 738.49 215.528C738.49 203.496 742.501 193.341 750.522 185.064C758.543 176.787 768.485 172.648 780.346 172.648C792.207 172.648 802.149 176.787 810.17 185.064C818.191 193.341 822.202 203.496 822.202 215.528C822.202 227.475 818.191 237.587 810.17 245.864C802.149 254.141 792.207 258.28 780.346 258.28ZM780.346 177.896C770.106 177.896 761.573 181.523 754.746 188.776C748.005 196.029 744.634 204.947 744.634 215.528C744.634 226.024 748.005 234.899 754.746 242.152C761.573 249.32 770.106 252.904 780.346 252.904C790.671 252.904 799.205 249.32 805.946 242.152C812.687 234.899 816.058 226.024 816.058 215.528C816.058 204.947 812.687 196.029 805.946 188.776C799.205 181.523 790.671 177.896 780.346 177.896ZM847.86 257V174.312C855.199 173.715 861.428 173.416 866.548 173.416C874.399 173.416 880.884 175.464 886.004 179.56C891.124 183.571 893.684 189.331 893.684 196.84C893.684 201.875 892.233 206.525 889.332 210.792C886.431 215.059 883.145 218.515 879.476 221.16C889.631 234.643 895.903 242.707 898.292 245.352C903.156 250.387 908.447 253.245 914.164 253.928L914.036 257.896C909.257 257.811 905.375 257.128 902.388 255.848C899.401 254.483 896.415 252.221 893.428 249.064C890.527 245.907 884.084 237.416 874.1 223.592C867.188 223.592 860.404 223.379 853.748 222.952V257H847.86ZM870.9 218.728C874.228 218.728 877.812 216.509 881.652 212.072C885.492 207.635 887.412 202.472 887.412 196.584C887.412 190.696 885.407 186.216 881.396 183.144C877.385 180.072 872.18 178.536 865.78 178.536C862.367 178.536 858.356 178.707 853.748 179.048V218.088C859.892 218.515 865.609 218.728 870.9 218.728ZM934.583 179.176H906.423V173.928H968.503V179.176H940.343V257H934.583V179.176Z" fill="#396682"/>
</svg>
